<mxfile host="app.diagrams.net" modified="2022-03-07T08:47:37.774Z" agent="5.0 (X11; Linux x86_64) AppleWebKit/537.36 (KHTML, like Gecko) Chrome/98.0.4758.102 Safari/537.36" etag="TnT6FvPtLlTmTrVlWl94" version="16.6.2" type="github">
  <diagram id="hgmUP19D6HoHachdwWmW" name="Page-1">
    <mxGraphModel dx="1097" dy="491" grid="1" gridSize="10" guides="1" tooltips="1" connect="1" arrows="1" fold="1" page="1" pageScale="1" pageWidth="1169" pageHeight="827" math="0" shadow="0">
      <root>
        <mxCell id="0" />
        <mxCell id="1" parent="0" />
        <mxCell id="Knozv3nmDtFxCPk96ZtY-1" value="" style="rounded=0;whiteSpace=wrap;html=1;fillColor=#FFE6CC;" vertex="1" parent="1">
          <mxGeometry x="390" y="80" width="180" height="360" as="geometry" />
        </mxCell>
        <mxCell id="Knozv3nmDtFxCPk96ZtY-4" value="" style="edgeStyle=orthogonalEdgeStyle;rounded=0;orthogonalLoop=1;jettySize=auto;html=1;" edge="1" parent="1" source="Knozv3nmDtFxCPk96ZtY-2" target="Knozv3nmDtFxCPk96ZtY-3">
          <mxGeometry relative="1" as="geometry" />
        </mxCell>
        <mxCell id="Knozv3nmDtFxCPk96ZtY-2" value="分析器" style="rounded=1;whiteSpace=wrap;html=1;fillColor=#CDA2BE;" vertex="1" parent="1">
          <mxGeometry x="440" y="140" width="80" height="30" as="geometry" />
        </mxCell>
        <mxCell id="Knozv3nmDtFxCPk96ZtY-6" value="" style="edgeStyle=orthogonalEdgeStyle;rounded=0;orthogonalLoop=1;jettySize=auto;html=1;" edge="1" parent="1" source="Knozv3nmDtFxCPk96ZtY-3" target="Knozv3nmDtFxCPk96ZtY-5">
          <mxGeometry relative="1" as="geometry" />
        </mxCell>
        <mxCell id="Knozv3nmDtFxCPk96ZtY-3" value="预处理器" style="rounded=1;whiteSpace=wrap;html=1;fillColor=#B9E0A5;" vertex="1" parent="1">
          <mxGeometry x="440" y="200" width="80" height="30" as="geometry" />
        </mxCell>
        <mxCell id="Knozv3nmDtFxCPk96ZtY-8" value="" style="edgeStyle=orthogonalEdgeStyle;rounded=0;orthogonalLoop=1;jettySize=auto;html=1;" edge="1" parent="1" source="Knozv3nmDtFxCPk96ZtY-5" target="Knozv3nmDtFxCPk96ZtY-7">
          <mxGeometry relative="1" as="geometry" />
        </mxCell>
        <mxCell id="Knozv3nmDtFxCPk96ZtY-5" value="逻辑查询计划生成器" style="rounded=1;whiteSpace=wrap;html=1;fillColor=#67AB9F;" vertex="1" parent="1">
          <mxGeometry x="440" y="258" width="80" height="30" as="geometry" />
        </mxCell>
        <mxCell id="Knozv3nmDtFxCPk96ZtY-14" value="" style="edgeStyle=orthogonalEdgeStyle;rounded=0;orthogonalLoop=1;jettySize=auto;html=1;" edge="1" parent="1" source="Knozv3nmDtFxCPk96ZtY-7" target="Knozv3nmDtFxCPk96ZtY-13">
          <mxGeometry relative="1" as="geometry" />
        </mxCell>
        <mxCell id="Knozv3nmDtFxCPk96ZtY-15" value="选中逻辑查询计划" style="edgeLabel;html=1;align=center;verticalAlign=middle;resizable=0;points=[];" vertex="1" connectable="0" parent="Knozv3nmDtFxCPk96ZtY-14">
          <mxGeometry x="0.2123" relative="1" as="geometry">
            <mxPoint y="-12" as="offset" />
          </mxGeometry>
        </mxCell>
        <mxCell id="Knozv3nmDtFxCPk96ZtY-7" value="查询重写器" style="rounded=1;whiteSpace=wrap;html=1;fillColor=#FF9999;" vertex="1" parent="1">
          <mxGeometry x="440" y="315" width="80" height="30" as="geometry" />
        </mxCell>
        <mxCell id="Knozv3nmDtFxCPk96ZtY-11" value="" style="edgeStyle=orthogonalEdgeStyle;rounded=0;orthogonalLoop=1;jettySize=auto;html=1;" edge="1" parent="1" source="Knozv3nmDtFxCPk96ZtY-10" target="Knozv3nmDtFxCPk96ZtY-2">
          <mxGeometry relative="1" as="geometry" />
        </mxCell>
        <mxCell id="Knozv3nmDtFxCPk96ZtY-10" value="查询" style="ellipse;shape=cloud;whiteSpace=wrap;html=1;fillColor=#99CCFF;" vertex="1" parent="1">
          <mxGeometry x="450" y="93" width="60" height="30" as="geometry" />
        </mxCell>
        <mxCell id="Knozv3nmDtFxCPk96ZtY-13" value="" style="shape=image;html=1;verticalLabelPosition=bottom;verticalAlign=top;imageAspect=1;aspect=fixed;image=img/clipart/Gear_128x128.png;fillColor=#B9E0A5;" vertex="1" parent="1">
          <mxGeometry x="463.39" y="390" width="33.22" height="38.96" as="geometry" />
        </mxCell>
      </root>
    </mxGraphModel>
  </diagram>
</mxfile>
